PathFileType	4	(X/Y/Z)	pose_F01_0-96.trc
DataRate	CameraRate	NumFrames	NumMarkers	Units	OrigDataRate	OrigDataStartFrame	OrigNumFrames
30	30	9	21	m	30	60	96
Frame#	Time	CHip			RHip			RKnee			RAnkle			RBigToe			RSmallToe			RHeel			LHip			LKnee			LAnkle			LBigToe			LSmallToe			LHeel			Neck			Nose			RShoulder			RElbow			RWrist			LShoulder			LElbow			LWrist			
		X1	Y1	Z1	X2	Y2	Z2	X3	Y3	Z3	X4	Y4	Z4	X5	Y5	Z5	X6	Y6	Z6	X7	Y7	Z7	X8	Y8	Z8	X9	Y9	Z9	X10	Y10	Z10	X11	Y11	Z11	X12	Y12	Z12	X13	Y13	Z13	X14	Y14	Z14	X15	Y15	Z15	X16	Y16	Z16	X17	Y17	Z17	X18	Y18	Z18	X19	Y19	Z19	X20	Y20	Z20	X21	Y21	Z21	
60	2.0	-0.28295746832989244	1.8737519328105277	-0.5340820799640433	-0.2991319525336	1.8726892738318182	-0.4904203048288481	-0.2884948120811632	1.7351883334046356	-0.47441656921533815													-0.269031032928268	1.874900919756188	-0.5788788954081071	-0.24304886930987768	1.725038770728525	-0.6166000382418526	-0.22722654558205221	1.5934828773267227	-0.6997698679732106	-0.20760058898248904	1.5651556516488032	-0.6947723094793864	-0.20216103533278798	1.5752087226962628	-0.7304363776380628	-0.23613793763718113	1.5883032617171546	-0.691931358177889	-0.2793494176599815	2.0365815009250587	-0.48485380281576146	-0.29523086967058	2.0680441194564274	-0.3464669765566452	-0.30069122495702877	2.0369043465944596	-0.44500511952224603	-1.8746814186552225	1.8938464160783393	1.3917603944040298	-0.3154780195890585	2.040488684714397	-0.3313592894925859	-0.2554513146783964	2.0380191707665816	-0.5193991385417421	-1.5382488306548066	1.863599776903801	0.813382146210658	-0.2335439663344237	1.8719148019676677	-0.5516655747819023
61	2.033333333333333	-0.2851836550471129	1.8735785215777496	-0.5402260243662509	-0.3041944748243611	1.8739716359727545	-0.49779300506371793	-0.2884948120811632	1.7351883334046356	-0.47441656921533815													-0.2691050724269488	1.8746021488595601	-0.5788575038597	-0.24386409081402627	1.7251301845307074	-0.6151554066321007	-0.22722654558205221	1.5934828773267227	-0.6997698679732106	-0.20760058898248904	1.5651556516488032	-0.6947723094793864	-0.20216103533278798	1.5752087226962628	-0.7304363776380628	-0.23613793763718113	1.5883032617171546	-0.691931358177889	-0.2815824984319935	2.0326663024852825	-0.4824450428606212	-0.29749696723290864	2.061707300690619	-0.3297904264621071	-0.30732783721902696	2.0337006313798014	-0.4557318193993364	-0.33096909499965493	1.9719406720054564	-0.3421742639006813	-0.31799504321678673	2.0363652405422243	-0.3228544570403768	-0.25555781834310404	2.031524532539702	-0.5094749537786747	-0.24268239755632937	1.9434846755279696	-0.5625550061326632	-0.23526749256888305	1.8680853145130136	-0.540369841833978
62	2.066666666666667	-0.2849594209643533	1.8732475392193868	-0.5403080504521072	-0.3032677329262066	1.8728171349268872	-0.5031318147076091	-0.2884948120811632	1.7351883334046356	-0.47441656921533815													-0.27099285044994126	1.8752852695733275	-0.5769109836410828	-0.24467931231817486	1.72522159833289	-0.6137107750223487	-0.22722654558205221	1.5934828773267227	-0.6997698679732106	-0.20760058898248904	1.5651556516488032	-0.6947723094793864	-0.20216103533278798	1.5752087226962628	-0.7304363776380628	-0.23613793763718113	1.5883032617171546	-0.691931358177889	-0.2845869485224533	2.0277364019490145	-0.47409666648363097	-0.3001463596731704	2.0506887056077	-0.3196152424621355	-0.30711634289675666	2.0297763626403675	-0.44623795627848656	-0.32959122193317264	1.9634450061627724	-0.3435372377618332	-0.3206485681063316	2.026136757085208	-0.31357634834290254	-0.26155651128836066	2.026330843353784	-0.5021576352005704	-0.24897072654994015	1.940536991131585	-0.5557953088176547	-0.23938659635633713	1.8647917513307766	-0.5356673554724395
63	2.1	-0.2867213259186152	1.8730181215049326	-0.538033587447499	-0.3038748203130613	1.871498725478561	-0.4975968914038127	-0.3005422629069747	1.7236077029463914	-0.4329685297718557													-0.2730210633781842	1.873998418426159	-0.5744814527583022	-0.24549453382232345	1.7253130121350724	-0.6122661434125968	-0.22722654558205221	1.5934828773267227	-0.6997698679732106	-0.20760058898248904	1.5651556516488032	-0.6947723094793864	-0.20216103533278798	1.5752087226962628	-0.7304363776380628	-0.23613793763718113	1.5883032617171546	-0.691931358177889	-0.2875964892582258	2.0251721853663622	-0.46606042742258225	-0.3012488597382625	2.0403935233587887	-0.3131652989490418	-0.308832413149875	2.024610495364054	-0.4341590762430317	-0.32788342229725487	1.9510487683753266	-0.3434640660936359	-0.3218293286681922	2.0091642005229655	-0.30528419871093115	-0.26281189431089264	2.0223477139693364	-0.49637473242179914	-0.24959721895026044	1.9366090813669117	-0.5471247782872821	-0.24187979505281573	1.8624892452004655	-0.532923032598858
64	2.1333333333333333	-0.286014720958143	1.8720085589180406	-0.5350548550591553	-0.3022119211009499	1.8711010704663429	-0.4914641934383278	-0.3005422629069747	1.7236077029463914	-0.4329685297718557													-0.2711995463025485	1.876177702231991	-0.5770187247588027	-0.24630975532647204	1.7254044259372547	-0.6108215118028448	-0.22722654558205221	1.5934828773267227	-0.6997698679732106	-0.20760058898248904	1.5651556516488032	-0.6947723094793864	-0.20216103533278798	1.5752087226962628	-0.7304363776380628	-0.23613793763718113	1.5883032617171546	-0.691931358177889	-0.29230193527046844	2.023160160929705	-0.4560582099363899	-0.3064577683135404	2.034348338437267	-0.3117517583143951	-0.3131721235341723	2.0203929319655205	-0.4152041919802303	-0.325575448242799	1.94662045836391	-0.3501915695619824	-0.31894587284749076	2.005003199097201	-0.3029937869667508	-0.2669159703702638	2.023176404550622	-0.49271523543365287	-0.2569610970085254	1.9360781719241407	-0.5439531029168366	-0.2445124696953061	1.8553774800029235	-0.5394690402329296
65	2.1666666666666665	-0.2900528677632298	1.8744310023886903	-0.530923573064188	-0.30516625933694397	1.8722767601979164	-0.4838782409085263	-0.3005422629069747	1.7236077029463914	-0.4329685297718557													-0.2753674973259574	1.8760252210290786	-0.5726057849064147	-0.24712497683062062	1.725495839739437	-0.6093768801930929	-0.22722654558205221	1.5934828773267227	-0.6997698679732106	-0.20760058898248904	1.5651556516488032	-0.6947723094793864	-0.20216103533278798	1.5752087226962628	-0.7304363776380628	-0.23613793763718113	1.5883032617171546	-0.691931358177889	-0.2944007012165718	2.024307872690597	-0.4544401238620072	-0.3012478297555902	2.032184452737245	-0.318123718079431	-0.31901412348757324	2.021521633130166	-0.40932860883246974	-0.32475506599206205	1.9453691447302912	-0.3473831268815202	-0.3180096556665316	2.0025510812122547	-0.2998081729249028	-0.26789676969721454	2.0248533795342416	-0.4963332241053431	-0.25784619405033765	1.9371104224192657	-0.5470419891696786	-0.2492215681449032	1.8638300898435123	-0.5297824894929496
66	2.2	-0.29223826370267303	1.8728358313143412	-0.5286530778861765	-0.30716825371631884	1.872173934609874	-0.4817113708555859	-0.3005422629069747	1.7236077029463914	-0.4329685297718557													-0.2763389338102218	1.8760139969099197	-0.5756631203986871	-0.24860588347295814	1.7265776099803394	-0.6100100039370162	-0.22722654558205221	1.5934828773267227	-0.6997698679732106	-0.20760058898248904	1.5651556516488032	-0.6947723094793864	-0.20216103533278798	1.5752087226962628	-0.7304363776380628	-0.23613793763718113	1.5883032617171546	-0.691931358177889	-0.29533000021647504	2.0255790729115466	-0.4575044060613767	-0.2976618444400059	2.0350624467575926	-0.3235692434267449	-0.3189153693784091	2.0225747073658265	-0.40931209189528023	-0.3253510042496097	1.950695763360638	-0.3427851568797036	-0.31681977659938515	2.008043634339263	-0.2981331377570677	-0.26696856057819596	2.0276318257003405	-0.5020104796797654	-0.25867936363092503	1.941250847808596	-0.5507274000476856	-0.2509544193792224	1.8593364250447246	-0.5271895584468141
67	2.2333333333333334	-0.2919788456802401	1.8790427583920701	-0.5209315742664543	-0.30672030594401556	1.8778728935301194	-0.4739228115901085	-0.3005422629069747	1.7236077029463914	-0.4329685297718557													-0.2771801018566667	1.8837357886744	-0.5712189343758286	-0.25008679011529567	1.7276593802212417	-0.6106431276809394	-0.22722654558205221	1.5934828773267227	-0.6997698679732106	-0.20760058898248904	1.5651556516488032	-0.6947723094793864	-0.20216103533278798	1.5752087226962628	-0.7304363776380628	-0.23613793763718113	1.5883032617171546	-0.691931358177889	-0.293433962914545	2.0292736368047426	-0.4606354598705707	-0.29624376561507765	2.0431497205164217	-0.3363950524181099	-0.3170545334864858	2.0226341780936172	-0.41142558771233134	-0.3260230871296913	1.9581743738292057	-0.32487475179624276	-0.3182700435145643	2.0181542516851763	-0.29800620122340016	-0.26777303250490964	2.0327080017406334	-0.5060883475430146	-0.2574980250308729	1.9510454059385496	-0.5573629460729657	-0.25075815343030244	1.868914188768266	-0.5280242265072707
68	2.2666666666666666	-0.2907784481129447	1.8814873542787847	-0.5175935579761708	-0.3046982946749048	1.8793449570379273	-0.46745789148074907	-0.3005422629069747	1.7236077029463914	-0.4329685297718557													-0.2740828926599989	1.8834946642917407	-0.5699290025389001	-0.24968347475015584	1.7307175383822306	-0.6113337221852342	-0.22722654558205221	1.5934828773267227	-0.6997698679732106	-0.20760058898248904	1.5651556516488032	-0.6947723094793864	-0.20216103533278798	1.5752087226962628	-0.7304363776380628	-0.23613793763718113	1.5883032617171546	-0.691931358177889	-0.2942440050283175	2.0340902343450398	-0.46411452126186153	-0.2974652010892805	2.0509036063849706	-0.34895976761046077	-0.31956424809155437	2.032424419025082	-0.41363990644938436	-0.32732491349722714	1.9640851383219746	-0.315647711159461	-0.31787099580804484	2.030572556653644	-0.3002245686039513	-0.26874757585592374	2.037143431883302	-0.518576607213301	-1.536861020862858	1.8664719302679853	0.7991991779800603	-0.2540562863615475	1.873446330610143	-0.5382960299062282
